<svg width="199.000000" height="57.000000" viewBox="0 0 199 57" fill="none" xmlns="http://www.w3.org/2000/svg" xmlns:xlink="http://www.w3.org/1999/xlink">
	<desc>
			Created with Pixso.
	</desc>
	<defs/>
	<path id="GeriÌcht" d="M96.09 13.14Q96.15 13.16 96.22 13.16L96.3 13.12Q100.4 11.13 104.72 9.92Q105.09 9.82 105.46 9.73Q105.59 9.7 105.6 9.65Q105.64 9.51 104.81 9.14Q103.69 8.63 102.31 8.25Q100.92 7.88 100.71 8.1L98.9 9.91Q97.1 11.8 95.99 12.68Q95.95 12.71 95.94 12.74Q95.89 12.83 95.95 12.97Q96 13.09 96.09 13.14ZM179.06 42.98Q179.08 43 179.12 43Q180.88 43 181.84 42.95L185.63 42.91L189.63 42.95Q190.56 43 192.18 43Q192.21 43 192.23 42.98Q192.32 42.94 192.32 42.74Q192.32 42.53 192.23 42.48Q192.21 42.47 192.18 42.47Q190.29 42.47 189.45 42.25Q188.78 42.07 188.46 41.63Q188.39 41.53 188.33 41.42Q188.04 40.79 188.04 39.43L188 19.15Q188.04 17.95 188.13 17.45Q188.2 17.06 188.44 16.84Q188.51 16.78 188.59 16.73Q188.97 16.5 189.85 16.5L190.42 16.5Q191.18 16.5 191.88 16.69Q192.74 16.92 193.52 17.43Q194.08 17.79 194.55 18.25Q195.27 18.96 195.77 19.9Q196.05 20.43 196.23 20.99Q196.58 22.06 196.58 23.24Q196.58 23.27 196.6 23.3Q196.65 23.41 196.94 23.41Q197.14 23.41 197.18 23.33Q197.19 23.31 197.19 23.28Q197.15 22.27 197.28 19.35Q197.42 16.42 197.55 14.49Q197.57 14.42 197.54 14.37Q197.5 14.29 197.35 14.28Q197.16 14.26 197.06 14.35Q197.04 14.37 197.02 14.4Q196.94 14.71 196.74 14.93Q196.53 15.16 196.19 15.28Q195.53 15.5 194.07 15.5L191 15.54Q188 15.62 185.58 15.62Q180.21 15.62 176.65 15.5Q175.02 15.5 174.73 14.87Q174.67 14.74 174.67 14.57Q174.67 14.55 174.66 14.53Q174.64 14.47 174.56 14.44Q174.45 14.4 174.31 14.4Q174.16 14.4 174.11 14.47Q174.1 14.49 174.1 14.53Q173.66 21.61 173.43 23.28Q173.42 23.29 173.42 23.3Q173.42 23.34 173.5 23.39Q173.58 23.43 173.66 23.45Q173.7 23.46 173.74 23.46Q173.94 23.46 173.97 23.39Q173.97 23.38 173.97 23.37Q174.08 22.43 174.4 21.56Q174.7 20.73 175.19 19.96Q176.12 18.53 177.41 17.62Q177.53 17.53 177.65 17.45Q179.04 16.56 180.45 16.51Q180.53 16.5 180.61 16.5L181.18 16.5Q182.41 16.5 182.85 17.01Q183.29 17.51 183.25 19.06L183.25 39.43Q183.25 40.75 182.94 41.39Q182.88 41.51 182.8 41.62Q182.47 42.07 181.77 42.25Q180.92 42.47 179.07 42.47Q179.06 42.47 179.05 42.47Q178.98 42.5 178.98 42.74Q178.98 42.94 179.06 42.98ZM9.38 41.63Q12.97 43.52 17.85 43.52Q22.03 43.52 27.66 42.29Q27.93 42.2 27.99 42.11Q28.06 42.03 28.06 41.76Q28.06 41.46 27.93 40.66Q27.8 39.87 27.8 37.89L27.8 34.9Q27.8 33.49 27.97 33.1Q28 33.03 28.05 32.98Q28.27 32.71 28.85 32.75Q28.9 32.75 28.93 32.73Q29.01 32.67 28.98 32.44Q28.95 32.18 28.83 32.14Q28.8 32.12 28.77 32.12Q26.3 32.26 24.01 32.26Q21.59 32.26 17.94 32.04Q17.93 32.04 17.92 32.04Q17.84 32.05 17.79 32.16Q17.76 32.2 17.75 32.25Q17.72 32.32 17.72 32.39Q17.72 32.62 17.83 32.7Q17.89 32.75 17.98 32.75Q20.31 32.75 21.37 33.06Q21.97 33.23 22.37 33.62Q22.66 33.91 22.83 34.33Q23.22 35.29 23.22 37.45Q23.22 39.51 22.89 40.6Q22.63 41.43 22.07 41.9Q21.91 42.03 21.72 42.14Q20.89 42.6 19.3 42.6Q17.19 42.6 15.34 41.89Q14.16 41.44 13.08 40.71Q12.94 40.61 12.79 40.5Q10.25 38.63 8.74 35.35Q7.16 31.87 7.16 27.33Q7.16 22.13 9.54 19.13Q10.4 18.03 11.52 17.33Q13.47 16.11 16.18 16.11Q18.29 16.11 20.07 16.87Q21.08 17.31 21.99 17.99Q24.5 19.86 26.04 23.2Q26.06 23.23 26.09 23.25Q26.18 23.32 26.34 23.28Q26.49 23.25 26.54 23.17Q26.56 23.12 26.56 23.07L26.21 17.3Q26.17 16.82 26.08 16.64Q26 16.46 25.64 16.29Q24.41 15.76 22.25 15.39Q20.1 15.01 18.02 15.01Q13.73 15.01 10.19 16.65Q10.04 16.72 9.89 16.79Q7.28 18.07 5.46 20.06Q4.73 20.86 4.12 21.77Q3.34 22.96 2.84 24.25Q2.01 26.45 2.01 28.96Q2.01 32.22 3.18 34.98Q3.5 35.72 3.9 36.42Q4.51 37.49 5.29 38.4Q6.95 40.35 9.38 41.63ZM116.85 41.42Q120.33 43.52 125.74 43.52Q128.84 43.52 131.75 42.79Q132.8 42.52 133.84 42.16Q134.24 42.03 134.32 41.88Q134.41 41.72 134.49 41.15L134.76 36.09Q134.76 35.95 134.7 35.89Q134.63 35.82 134.49 35.82Q134.46 35.82 134.43 35.83Q134.34 35.86 134.28 35.96Q130.6 42.23 126.38 42.62Q126.11 42.64 125.83 42.64Q124.91 42.64 124.04 42.43Q122.21 41.99 120.59 40.62Q118.22 38.59 116.83 35.16Q116.74 34.93 116.65 34.7Q115.45 31.46 115.45 27.77Q115.45 22.27 117.66 19.24Q118.49 18.11 119.59 17.4Q121.44 16.2 124.07 16.2Q125.94 16.2 127.57 16.82Q128.75 17.26 129.81 18.03Q132.35 19.86 133.97 23.2Q133.99 23.23 134.02 23.26Q134.11 23.33 134.25 23.33Q134.39 23.33 134.44 23.26Q134.45 23.23 134.45 23.2L134.14 17.3Q134.14 16.86 134.03 16.69Q133.92 16.5 133.57 16.29Q132.21 15.76 130 15.39Q127.81 15.01 125.78 15.01Q122.65 15.01 119.86 15.98Q118.97 16.3 118.1 16.71Q116.21 17.61 114.72 18.96Q113.42 20.13 112.43 21.63Q112.09 22.14 111.81 22.68Q110.29 25.55 110.29 29.22Q110.29 31.18 110.74 33.03Q111.13 34.59 111.83 36.07Q112.03 36.48 112.26 36.88Q113.82 39.57 116.85 41.42ZM90.1 42.48Q90.08 42.47 90.05 42.47Q88.39 42.47 86.56 41.04Q84.74 39.61 82.33 36.38Q79.93 33.13 76.51 27.46Q78.55 26.29 79.8 24.55Q79.82 24.54 79.83 24.52Q80.89 23.03 81.05 21.44Q81.08 21.15 81.08 20.87Q81.08 19.63 80.58 18.65Q80.02 17.57 78.86 16.82Q76.64 15.37 72.19 15.37Q71.75 15.37 70.34 15.45Q68.58 15.62 67.09 15.62Q65.85 15.62 63.92 15.54L61.59 15.5Q61.54 15.5 61.5 15.52Q61.42 15.57 61.42 15.76Q61.42 15.94 61.5 16Q61.53 16.02 61.59 16.02Q62.95 16.02 63.61 16.27Q63.99 16.41 64.24 16.68Q64.41 16.87 64.51 17.13Q64.76 17.74 64.76 19.06L64.76 39.43Q64.71 40.71 64.47 41.35Q64.38 41.58 64.24 41.76Q63.98 42.07 63.52 42.23Q62.82 42.47 61.37 42.47Q61.31 42.47 61.27 42.5Q61.2 42.56 61.21 42.74Q61.23 42.91 61.32 42.97Q61.36 43 61.42 43Q62.91 43 63.79 42.95L67.09 42.91L70.34 42.95Q71.14 43 72.63 43Q72.69 43 72.73 42.96Q72.81 42.91 72.79 42.74Q72.78 42.55 72.68 42.49Q72.64 42.47 72.59 42.47Q71.27 42.47 70.63 42.23Q70.32 42.11 70.09 41.89Q69.87 41.67 69.75 41.35Q69.5 40.71 69.56 39.43L69.56 29Q69.9 29.09 70.13 29.09Q71.62 29.09 72.86 28.78Q76.55 35.92 79.16 39.46Q81.78 43 82.85 43L90.05 43Q90.12 43 90.16 42.96Q90.23 42.91 90.22 42.74Q90.2 42.52 90.1 42.48ZM55.3 35.96Q55.28 35.98 55.25 36Q54.37 37.92 52.96 39.3Q52.33 39.92 51.6 40.43Q50.34 41.3 48.95 41.71Q47.71 42.07 46.37 42.07L45.13 42.07Q43.37 42.07 42.82 41.54Q42.28 41.02 42.28 39.26L42.28 29.31L47.69 29.31Q49.79 29.31 50.95 30.3Q51.2 30.51 51.4 30.76Q52.13 31.69 52.13 33.19Q52.13 33.2 52.13 33.21Q52.14 33.28 52.23 33.34Q52.31 33.38 52.4 33.4Q52.44 33.4 52.48 33.4Q52.64 33.4 52.71 33.32Q52.75 33.27 52.75 33.19L52.71 30.8Q52.65 30.1 52.65 28.7Q52.65 27.73 52.71 27.2L52.75 24.78Q52.75 24.71 52.72 24.66Q52.65 24.56 52.44 24.56Q52.2 24.56 52.14 24.66Q52.13 24.69 52.13 24.73Q52.13 26.2 51.39 27Q51.25 27.16 51.07 27.29Q50.02 28.07 47.78 28.07L42.28 28.07L42.28 19.1Q42.32 17.87 42.49 17.34Q42.56 17.15 42.68 17Q42.89 16.75 43.26 16.62Q43.85 16.42 45.22 16.42L46.06 16.42Q48.1 16.42 49.72 17.25Q50.23 17.51 50.7 17.85Q51.36 18.33 51.89 18.94Q52.91 20.12 53.4 21.75Q53.45 21.83 53.68 21.83Q53.88 21.83 53.92 21.75Q53.93 21.73 53.93 21.7L53.84 15.89Q53.84 15.67 53.73 15.57Q53.65 15.5 53.49 15.5L34.53 15.5Q34.52 15.5 34.51 15.5Q34.45 15.52 34.47 15.76Q34.48 15.98 34.57 16.01Q34.59 16.02 34.62 16.02Q35.85 16.02 36.46 16.27Q36.77 16.39 36.97 16.6Q37.18 16.81 37.29 17.13Q37.52 17.74 37.52 19.06L37.52 39.43Q37.52 40.79 37.32 41.42Q37.23 41.72 37.03 41.93Q36.83 42.14 36.53 42.25Q35.94 42.47 34.62 42.47Q34.59 42.47 34.57 42.48Q34.49 42.52 34.49 42.74Q34.49 42.92 34.57 42.97Q34.61 43 34.66 43L54.73 43Q55.12 43 55.25 42.84Q55.38 42.68 55.38 42.34Q55.38 38.95 55.82 36.09Q55.83 36.08 55.83 36.07Q55.84 36.03 55.74 35.98Q55.61 35.92 55.48 35.92Q55.38 35.92 55.3 35.96ZM93.64 42.99Q93.65 43 93.66 43Q95.12 43 95.95 42.95L99.08 42.91L102.29 42.95Q103.13 43 104.49 43Q104.5 43 104.51 42.99Q104.58 42.97 104.58 42.74Q104.58 42.49 104.5 42.47Q104.5 42.47 104.49 42.47Q103.21 42.47 102.6 42.23Q102.29 42.11 102.08 41.89Q101.86 41.68 101.74 41.37Q101.49 40.75 101.49 39.43L101.49 19.15Q101.55 17.78 101.74 17.17Q101.83 16.88 102.02 16.66Q102.22 16.43 102.55 16.29Q103.17 16.02 104.49 16.02Q104.5 16.02 104.51 16.02Q104.58 16 104.58 15.76Q104.58 15.52 104.5 15.5Q104.5 15.5 104.49 15.5L102.33 15.54Q100.31 15.62 98.99 15.62Q97.8 15.62 95.86 15.54L93.66 15.5Q93.63 15.5 93.61 15.51Q93.54 15.55 93.55 15.76Q93.57 16 93.65 16.02Q93.65 16.02 93.66 16.02Q94.94 16.02 95.55 16.27Q95.84 16.38 96.04 16.57Q96.28 16.8 96.41 17.15Q96.66 17.78 96.66 19.06L96.66 39.43Q96.66 40.79 96.43 41.42Q96.32 41.73 96.11 41.94Q95.91 42.14 95.62 42.25Q95.03 42.47 93.66 42.47Q93.65 42.47 93.65 42.47Q93.58 42.49 93.58 42.74Q93.58 42.97 93.64 42.99ZM168.7 42.47Q168.69 42.47 168.68 42.47Q167.41 42.47 166.74 42.23Q166.41 42.11 166.17 41.88Q165.94 41.66 165.8 41.35Q165.52 40.71 165.52 39.43L165.52 19.06Q165.6 17.74 165.82 17.13Q165.94 16.78 166.18 16.55Q166.37 16.37 166.63 16.27Q167.23 16.02 168.56 16.02Q168.58 16.02 168.6 16.01Q168.68 15.97 168.68 15.76Q168.68 15.55 168.6 15.5Q168.58 15.5 168.56 15.5L166.31 15.54Q164.38 15.62 163.18 15.62Q161.95 15.62 160.02 15.54L157.86 15.5Q157.83 15.5 157.81 15.51Q157.73 15.55 157.75 15.76Q157.77 16 157.84 16.02Q157.85 16.02 157.86 16.02Q159.66 16.02 160.21 16.64Q160.77 17.26 160.77 19.15L160.77 28.07L148.14 28.07L148.14 19.15Q148.18 17.83 148.37 17.19Q148.48 16.85 148.7 16.62Q148.9 16.41 149.19 16.29Q149.81 16.02 151.13 16.02Q151.14 16.02 151.15 16.02Q151.22 16 151.22 15.76Q151.22 15.52 151.15 15.5Q151.14 15.5 151.13 15.5L148.89 15.54Q146.86 15.62 145.67 15.62Q144.48 15.62 142.55 15.54L140.43 15.5Q140.41 15.5 140.39 15.5Q140.3 15.55 140.3 15.76Q140.3 15.97 140.39 16.01Q140.41 16.02 140.43 16.02Q142.24 16.02 142.81 16.62Q143.39 17.21 143.34 19.06L143.34 39.43Q143.34 40.79 143.14 41.42Q143.04 41.72 142.85 41.93Q142.65 42.14 142.35 42.25Q141.75 42.47 140.43 42.47Q140.41 42.47 140.39 42.48Q140.3 42.52 140.3 42.74Q140.3 42.94 140.39 42.98Q140.41 43 140.43 43Q141.8 43 142.64 42.95L145.67 42.91L148.93 42.95Q149.73 43 151.17 43Q151.2 43 151.22 42.98Q151.3 42.94 151.3 42.74Q151.3 42.52 151.22 42.48Q151.2 42.47 151.17 42.47Q149.85 42.47 149.23 42.23Q148.92 42.11 148.71 41.89Q148.5 41.68 148.37 41.37Q148.14 40.75 148.14 39.43L148.14 29.31L160.81 29.31L160.81 39.43Q160.81 40.79 160.63 41.42Q160.54 41.73 160.35 41.94Q160.16 42.14 159.87 42.25Q159.27 42.47 157.91 42.47Q157.88 42.47 157.85 42.48Q157.78 42.53 157.79 42.74Q157.81 42.97 157.89 42.99Q157.9 43 157.91 43Q159.36 43 160.2 42.95L163.36 42.91L166.67 42.95Q167.45 43 168.68 43Q168.69 43 168.7 42.99Q168.77 42.97 168.77 42.74Q168.77 42.49 168.7 42.47ZM70.83 27.9Q70.08 27.9 69.56 27.77L69.56 19.15Q69.6 17.7 69.75 17.15Q69.86 16.74 70.13 16.55Q70.23 16.48 70.34 16.44Q70.78 16.29 71.97 16.29Q72.67 16.29 73.29 16.52Q74.21 16.87 74.94 17.76Q76.15 19.23 76.15 22.36Q76.15 25.36 74.94 26.63Q73.74 27.9 70.83 27.9Z" fill="#FFFFFF" fill-opacity="1.000000" fill-rule="evenodd"/>
</svg>
