<svg width="24.000000" height="24.000000" viewBox="0 0 24 24" fill="none" xmlns="http://www.w3.org/2000/svg" xmlns:xlink="http://www.w3.org/1999/xlink">
	<desc>
			Created with Pixso.
	</desc>
	<defs>
		<clipPath id="clip566_1728">
			<rect id="u:twitter-alt" rx="-0.500000" width="23.000000" height="23.000000" transform="translate(0.500000 0.500000)" fill="white" fill-opacity="0"/>
		</clipPath>
	</defs>
	<rect id="u:twitter-alt" rx="-0.500000" width="23.000000" height="23.000000" transform="translate(0.500000 0.500000)" fill="#FFFFFF" fill-opacity="0"/>
	<g clip-path="url(#clip566_1728)">
		<path id="Vector" d="M22.99 3.95C22.99 3.77 22.94 3.6 22.85 3.44C22.76 3.29 22.63 3.16 22.48 3.08C22.33 2.99 22.15 2.94 21.98 2.95C21.8 2.95 21.63 3 21.48 3.09C20.89 3.43 20.26 3.7 19.6 3.88C18.66 3.07 17.47 2.63 16.23 2.64C14.87 2.64 13.57 3.17 12.59 4.11C11.62 5.06 11.05 6.34 11 7.7C8.33 7.27 5.9 5.88 4.19 3.78C4.09 3.65 3.96 3.55 3.81 3.49C3.66 3.43 3.5 3.4 3.33 3.41C3.17 3.42 3.02 3.48 2.88 3.56C2.74 3.65 2.63 3.77 2.55 3.91C2.14 4.63 1.9 5.44 1.86 6.27C1.82 7.09 1.97 7.92 2.31 8.68L2.3 8.68C2.15 8.77 2.03 8.91 1.94 9.06C1.85 9.22 1.81 9.39 1.81 9.57C1.81 9.72 1.82 9.86 1.84 10.01C1.94 11.27 2.5 12.45 3.4 13.32C3.34 13.44 3.3 13.57 3.29 13.7C3.28 13.83 3.3 13.97 3.34 14.09C3.73 15.33 4.58 16.37 5.7 17.01C4.56 17.46 3.33 17.61 2.11 17.46C1.89 17.43 1.66 17.48 1.46 17.6C1.27 17.72 1.12 17.9 1.05 18.11C0.97 18.33 0.97 18.56 1.04 18.77C1.11 18.99 1.25 19.17 1.45 19.29C3.54 20.64 5.97 21.36 8.45 21.36C11.27 21.39 14.03 20.49 16.28 18.79C18.53 17.1 20.16 14.71 20.92 11.99C21.27 10.81 21.45 9.58 21.46 8.35C21.46 8.28 21.46 8.21 21.45 8.15C21.98 7.58 22.38 6.92 22.64 6.2C22.91 5.48 23.02 4.71 22.99 3.95ZM19.68 7.16C19.51 7.35 19.43 7.6 19.45 7.86C19.46 8.02 19.45 8.19 19.45 8.35C19.45 9.39 19.3 10.43 19 11.43C18.38 13.74 17.01 15.78 15.1 17.21C13.19 18.65 10.85 19.41 8.45 19.36C7.6 19.36 6.74 19.26 5.9 19.06C6.97 18.71 7.97 18.18 8.85 17.49C9.01 17.36 9.13 17.19 9.19 16.99C9.25 16.79 9.24 16.58 9.18 16.39C9.11 16.19 8.98 16.02 8.82 15.9C8.65 15.78 8.45 15.71 8.25 15.71C7.41 15.69 6.62 15.36 6.03 14.77C6.18 14.74 6.33 14.71 6.48 14.67C6.69 14.6 6.88 14.47 7.01 14.29C7.14 14.11 7.21 13.89 7.2 13.66C7.19 13.44 7.11 13.22 6.96 13.05C6.82 12.88 6.62 12.77 6.4 12.72C5.91 12.63 5.46 12.42 5.07 12.12C4.68 11.82 4.36 11.44 4.15 11C4.33 11.02 4.51 11.04 4.69 11.04C4.91 11.05 5.12 10.98 5.3 10.86C5.47 10.73 5.61 10.55 5.67 10.35C5.74 10.14 5.74 9.92 5.66 9.71C5.59 9.51 5.46 9.33 5.27 9.21C4.83 8.92 4.47 8.52 4.23 8.05C3.98 7.59 3.85 7.07 3.85 6.54C3.85 6.47 3.85 6.4 3.86 6.34C6.1 8.43 9 9.66 12.07 9.82C12.22 9.82 12.37 9.8 12.52 9.73C12.66 9.67 12.78 9.58 12.88 9.46C12.98 9.34 13.05 9.2 13.09 9.05C13.12 8.9 13.12 8.74 13.09 8.59C13.03 8.35 13 8.11 13 7.86C13 7.01 13.34 6.19 13.95 5.58C14.55 4.98 15.37 4.64 16.23 4.64C16.67 4.64 17.1 4.73 17.51 4.9C17.91 5.08 18.27 5.33 18.57 5.66C18.69 5.78 18.83 5.87 18.99 5.93C19.16 5.98 19.33 5.99 19.49 5.95C19.9 5.88 20.31 5.77 20.71 5.63C20.44 6.19 20.09 6.7 19.68 7.16Z" fill="#F5EFDB" fill-opacity="1.000000" fill-rule="nonzero"/>
	</g>
</svg>
