<svg width="146.000488" height="146.000000" viewBox="0 0 246 246" fill="none"
    xmlns="http://www.w3.org/2000/svg" xmlns:xlink="http://www.w3.org/1999/xlink">
    <desc>
        Created with Pixso.
    </desc>
    <defs />
    <path id="Vector"
        d="M97.77 63.5C102.3 58.93 103.43 52.64 100.3 49.47C97.16 46.31 90.93 47.45 86.41 52.02C82.13 56.34 80.88 62.2 83.41 65.5L77.51 71.47L76.31 70.26L48.08 98.77L51.48 102.2L79.71 73.69L78.51 72.48L84.42 66.52C87.69 69.07 93.49 67.82 97.77 63.5ZM77.61 73.78L51.56 100.08L50.18 98.68L76.23 72.38L77.61 73.78ZM84.97 64.95C82.39 62.34 83.49 57 87.41 53.04C91.34 49.07 96.63 47.97 99.21 50.57C101.79 53.18 100.69 58.52 96.77 62.48C92.84 66.44 87.55 67.55 84.97 64.95Z"
        fill="#FFFFFF" fill-opacity="1.000000" fill-rule="nonzero" />
    <path id="Vector"
        d="M60.07 52.02C55.55 47.44 49.33 46.3 46.2 49.47C43.07 52.63 44.2 58.93 48.72 63.51C52.99 67.84 58.79 69.09 62.05 66.54L67.95 72.51L66.76 73.72L94.95 102.26L98.34 98.83L70.15 70.28L68.96 71.49L63.06 65.52C65.58 62.21 64.34 56.35 60.07 52.02ZM70.23 72.4L96.25 98.74L94.87 100.14L68.85 73.8L70.23 72.4ZM61.5 64.96C58.92 67.57 53.64 66.46 49.72 62.49C45.8 58.52 44.71 53.17 47.28 50.57C49.86 47.96 55.14 49.07 59.06 53.03C62.98 57 64.08 62.35 61.5 64.96Z"
        fill="#FFFFFF" fill-opacity="1.000000" fill-rule="nonzero" />
    <path id="D"
        d="M72.1 12.12C71.74 12.12 71.34 12.1 70.89 12.06C70.71 12.05 70.49 12.03 70.24 12.02C69.98 12.01 69.7 12 69.38 12L67.96 12.02C67.73 12.03 67.4 12.04 66.98 12.04C66.96 12.04 66.94 12 66.94 11.93C66.94 11.85 66.96 11.81 66.98 11.81C67.38 11.81 67.66 11.78 67.84 11.71C68.02 11.65 68.14 11.53 68.21 11.35C68.28 11.16 68.32 10.87 68.3 10.48L68.3 1.59C68.28 1.21 68.23 0.92 68.15 0.74C68.09 0.56 67.96 0.44 67.79 0.38C67.61 0.3 67.34 0.26 66.98 0.26C66.96 0.26 66.94 0.23 66.94 0.15C66.94 0.07 66.96 0.03 66.98 0.03L67.96 0.05C68.52 0.08 68.98 0.09 69.34 0.09C69.76 0.09 70.18 0.07 70.6 0.03C71.14 0.01 71.54 0 71.79 0C73.13 0 74.32 0.24 75.36 0.74C76.39 1.23 77.2 1.92 77.77 2.8C78.35 3.68 78.63 4.7 78.63 5.84C78.63 7.06 78.33 8.16 77.71 9.12C77.11 10.07 76.32 10.8 75.32 11.33C74.32 11.85 73.25 12.12 72.1 12.12ZM71.93 11.73C72.82 11.73 73.6 11.52 74.26 11.1C74.93 10.66 75.44 10.04 75.8 9.22C76.17 8.4 76.35 7.41 76.35 6.26C76.35 5.27 76.19 4.34 75.87 3.45C75.55 2.56 75.04 1.82 74.34 1.24C73.65 0.67 72.77 0.38 71.7 0.38C71.18 0.38 70.84 0.48 70.66 0.67C70.48 0.85 70.39 1.17 70.39 1.63L70.39 10.27C70.41 10.8 70.51 11.18 70.72 11.41C70.94 11.62 71.34 11.73 71.93 11.73Z"
        fill="#DCCA87" fill-opacity="1.000000" fill-rule="nonzero" />
    <path id="E"
        d="M95.09 12.86C95.12 12.84 95.15 12.84 95.19 12.85C95.23 12.86 95.26 12.88 95.29 12.92C95.32 12.94 95.33 12.95 95.32 12.96C94.96 13.73 94.64 14.58 94.37 15.53C94.34 15.62 94.3 15.69 94.25 15.73C94.2 15.76 94.12 15.75 94.01 15.72L85.62 13.25C85.57 13.24 85.56 13.2 85.58 13.12C85.6 13.05 85.63 13.02 85.67 13.03C86.04 13.14 86.31 13.18 86.49 13.17C86.68 13.16 86.82 13.07 86.92 12.91C87.03 12.76 87.14 12.49 87.26 12.11L89.76 3.58C89.86 3.21 89.91 2.93 89.9 2.74C89.89 2.55 89.81 2.4 89.66 2.29C89.51 2.16 89.26 2.05 88.92 1.95C88.88 1.94 88.86 1.89 88.87 1.82C88.9 1.74 88.92 1.71 88.94 1.72L96.87 4.05C96.97 4.08 97 4.15 96.97 4.26L96.29 6.7C96.28 6.74 96.24 6.75 96.17 6.73C96.1 6.71 96.07 6.68 96.07 6.66C96.06 5.91 95.84 5.25 95.4 4.7C94.98 4.13 94.4 3.74 93.65 3.52L93.3 3.42C92.92 3.31 92.63 3.26 92.44 3.27C92.27 3.27 92.14 3.34 92.05 3.47C91.95 3.6 91.85 3.84 91.74 4.18L90.64 7.94L92.93 8.62C93.56 8.8 94.05 8.83 94.41 8.69C94.77 8.56 95.02 8.24 95.17 7.75C95.18 7.7 95.23 7.69 95.32 7.72C95.4 7.74 95.44 7.79 95.42 7.85L95.1 8.86C95.05 9 94.98 9.21 94.9 9.48C94.79 9.87 94.7 10.17 94.66 10.37L94.39 11.37C94.37 11.43 94.32 11.45 94.25 11.43C94.21 11.42 94.18 11.4 94.14 11.38C94.13 11.34 94.12 11.32 94.13 11.29C94.28 10.76 94.24 10.32 93.98 9.95C93.75 9.57 93.33 9.3 92.75 9.12L90.48 8.46L89.26 12.62C89.12 13.12 89.1 13.46 89.2 13.65C89.32 13.84 89.62 14.01 90.11 14.16L90.63 14.31C91.43 14.54 92.22 14.53 93.02 14.27C93.82 14 94.51 13.53 95.09 12.86Z"
        fill="#DCCA87" fill-opacity="1.000000" fill-rule="nonzero" />
    <path id="L"
        d="M102.32 19.58C102.3 19.56 102.31 19.52 102.35 19.46C102.39 19.4 102.42 19.37 102.44 19.38C102.78 19.6 103.03 19.73 103.22 19.77C103.4 19.81 103.57 19.77 103.71 19.65C103.86 19.53 104.04 19.31 104.25 18.98L109.05 11.49C109.26 11.17 109.38 10.91 109.43 10.73C109.47 10.54 109.43 10.38 109.32 10.22C109.21 10.06 109 9.89 108.7 9.69C108.67 9.67 108.67 9.63 108.72 9.56C108.76 9.5 108.79 9.48 108.83 9.5L109.59 10.01C110.05 10.34 110.42 10.6 110.71 10.78C111.01 10.97 111.4 11.21 111.91 11.51L112.75 12.02C112.77 12.04 112.76 12.07 112.72 12.14C112.67 12.2 112.64 12.23 112.62 12.22C112.29 12 112.03 11.88 111.83 11.85C111.66 11.81 111.5 11.85 111.35 11.97C111.21 12.09 111.02 12.31 110.8 12.64L106.05 20.04C105.78 20.46 105.66 20.78 105.69 21C105.73 21.2 105.91 21.41 106.24 21.63L106.7 21.92C107.57 22.48 108.42 22.75 109.25 22.74C110.09 22.72 110.96 22.41 111.85 21.81C111.88 21.8 111.92 21.81 111.95 21.83C111.98 21.85 112.01 21.88 112.02 21.92C112.05 21.96 112.05 21.98 112.04 22C111.39 22.83 110.82 23.63 110.33 24.39C110.22 24.56 110.09 24.58 109.93 24.48L102.32 19.58Z"
        fill="#DCCA87" fill-opacity="1.000000" fill-rule="nonzero" />
    <path id="I"
        d="M117.46 31.61C117.44 31.59 117.46 31.56 117.52 31.51C117.58 31.46 117.61 31.44 117.63 31.46C117.89 31.76 118.1 31.95 118.25 32.04C118.42 32.13 118.59 32.14 118.77 32.07C118.94 32 119.18 31.84 119.48 31.58L126.19 25.76C126.47 25.51 126.65 25.3 126.74 25.13C126.84 24.95 126.86 24.78 126.79 24.6C126.73 24.41 126.58 24.18 126.34 23.9C126.32 23.88 126.33 23.84 126.38 23.78C126.44 23.73 126.48 23.72 126.51 23.75L127.12 24.49C127.47 24.93 127.76 25.28 127.98 25.54C128.24 25.83 128.56 26.19 128.97 26.62L129.6 27.32C129.61 27.34 129.59 27.37 129.53 27.42C129.48 27.48 129.44 27.49 129.42 27.47C129.17 27.18 128.96 26.99 128.78 26.91C128.61 26.82 128.43 26.81 128.25 26.88C128.09 26.96 127.85 27.13 127.54 27.38L120.86 33.18C120.57 33.43 120.38 33.64 120.29 33.8C120.2 33.98 120.19 34.16 120.25 34.35C120.32 34.52 120.47 34.75 120.72 35.03C120.73 35.05 120.71 35.09 120.66 35.14C120.6 35.19 120.56 35.2 120.54 35.18C120.28 34.88 120.08 34.64 119.93 34.44L119.03 33.37L118.12 32.35C117.95 32.18 117.73 31.93 117.46 31.61Z"
        fill="#DCCA87" fill-opacity="1.000000" fill-rule="nonzero" />
    <path id="G"
        d="M128.31 48.73C127.73 47.43 127.46 46.2 127.53 45.01C127.6 43.84 127.95 42.8 128.6 41.9C129.25 41 130.13 40.3 131.22 39.8C132.28 39.31 133.35 39.16 134.44 39.33C135.55 39.5 136.55 39.97 137.46 40.72C138.37 41.47 139.1 42.44 139.64 43.63C139.89 44.17 140.1 44.76 140.25 45.38C140.42 45.99 140.51 46.49 140.52 46.88C140.51 47 140.49 47.07 140.46 47.12C140.42 47.16 140.34 47.22 140.22 47.29L138 48.48C137.95 48.5 137.91 48.48 137.87 48.43C137.83 48.38 137.83 48.33 137.85 48.29C138.55 47.48 138.99 46.63 139.17 45.74C139.37 44.85 139.27 43.97 138.87 43.09C138.36 41.96 137.56 41.27 136.47 41C135.39 40.74 134.17 40.92 132.8 41.54C131.6 42.09 130.64 42.79 129.91 43.63C129.18 44.47 128.73 45.36 128.56 46.31C128.4 47.27 128.52 48.22 128.94 49.14C129.13 49.56 129.34 49.85 129.56 50.02C129.78 50.18 130.06 50.24 130.37 50.19C130.71 50.15 131.14 50.01 131.69 49.76C132.26 49.5 132.65 49.26 132.86 49.03C133.07 48.81 133.15 48.54 133.1 48.23C133.06 47.91 132.89 47.44 132.61 46.82C132.58 46.75 132.61 46.7 132.7 46.66C132.74 46.64 132.77 46.63 132.8 46.63C132.84 46.64 132.87 46.66 132.88 46.68C133.26 47.67 133.6 48.49 133.89 49.13C134.17 49.74 134.47 50.36 134.81 50.99C134.83 51.04 134.8 51.09 134.72 51.14C134.65 51.19 134.6 51.19 134.58 51.14C134.5 50.95 134.4 50.85 134.28 50.86C134.15 50.86 133.9 50.94 133.53 51.11L132.35 51.66C131.82 51.89 131.46 52.08 131.27 52.21C131.08 52.34 130.94 52.43 130.86 52.46C130.79 52.49 130.74 52.5 130.7 52.49C130.67 52.49 130.63 52.46 130.58 52.4C129.57 51.06 128.82 49.83 128.31 48.73Z"
        fill="#DCCA87" fill-opacity="1.000000" fill-rule="nonzero" />
    <path id="H"
        d="M134.14 70.85C134.14 70.87 134.11 70.89 134.03 70.9C133.96 70.91 133.92 70.9 133.91 70.88C133.86 70.52 133.83 70.23 133.81 70L133.62 68.57L133.4 67.21C133.36 66.97 133.3 66.64 133.24 66.22C133.24 66.19 133.28 66.17 133.35 66.15C133.42 66.14 133.47 66.15 133.47 66.19C133.53 66.58 133.6 66.85 133.69 67.01C133.78 67.18 133.91 67.27 134.1 67.3C134.28 67.33 134.57 67.31 134.96 67.25L139.32 66.62L138.54 61.15L134.17 61.78C133.8 61.83 133.52 61.9 133.35 61.99C133.19 62.09 133.08 62.24 133.03 62.43C132.99 62.61 133 62.9 133.05 63.28C133.06 63.32 133.02 63.34 132.95 63.35C132.87 63.36 132.83 63.35 132.83 63.31C132.77 62.89 132.73 62.57 132.71 62.34L132.52 60.93L132.32 59.62C132.27 59.38 132.22 59.06 132.16 58.67C132.16 58.63 132.19 58.61 132.27 58.6C132.34 58.59 132.38 58.6 132.39 58.64C132.44 59.02 132.51 59.29 132.6 59.44C132.69 59.61 132.83 59.71 133.01 59.73C133.2 59.77 133.49 59.76 133.88 59.7L142.66 58.44C143.2 58.37 143.53 58.25 143.67 58.06C143.83 57.87 143.87 57.51 143.79 56.99C143.78 56.96 143.82 56.93 143.9 56.92C143.97 56.91 144.01 56.92 144.02 56.96L144.13 57.88C144.19 58.44 144.24 58.89 144.29 59.23C144.34 59.58 144.41 60.04 144.52 60.62L144.68 61.58C144.69 61.61 144.65 61.63 144.57 61.64C144.5 61.65 144.46 61.64 144.45 61.62C144.4 61.23 144.32 60.96 144.22 60.79C144.12 60.63 143.97 60.53 143.77 60.49C143.59 60.47 143.3 60.47 142.92 60.52L139.07 61.07L139.85 66.53L143.7 65.97C144.25 65.9 144.6 65.76 144.75 65.57C144.91 65.39 144.95 65.04 144.87 64.52C144.87 64.5 144.9 64.48 144.98 64.45C145.05 64.44 145.09 64.45 145.1 64.49L145.21 65.43C145.27 65.99 145.32 66.45 145.37 66.8C145.42 67.14 145.5 67.59 145.6 68.15L145.76 69.11C145.77 69.15 145.73 69.18 145.66 69.19C145.58 69.2 145.54 69.18 145.53 69.15C145.48 68.76 145.4 68.49 145.3 68.33C145.21 68.17 145.08 68.07 144.89 68.03C144.7 68 144.42 67.99 144.04 68.02L135.25 69.29C134.89 69.34 134.61 69.42 134.43 69.52C134.27 69.64 134.16 69.79 134.11 70C134.08 70.19 134.09 70.48 134.14 70.85Z"
        fill="#DCCA87" fill-opacity="1.000000" fill-rule="nonzero" />
    <path id="T"
        d="M133.36 78.96C133.37 78.92 133.41 78.9 133.49 78.92C133.56 78.93 133.6 78.94 133.59 78.97C133.52 79.5 133.49 79.89 133.52 80.14C133.55 80.41 133.64 80.6 133.81 80.71C133.99 80.83 134.26 80.91 134.64 80.97L143.43 82.23C143.87 82.31 144.17 82.29 144.33 82.19C144.5 82.08 144.61 81.85 144.66 81.5L144.69 81.25C144.75 80.82 144.68 80.37 144.46 79.91C144.25 79.46 143.94 79.05 143.53 78.69C143.13 78.34 142.67 78.09 142.14 77.95C142.12 77.95 142.11 77.91 142.12 77.85C142.13 77.81 142.14 77.78 142.16 77.74C142.18 77.72 142.2 77.71 142.22 77.73C142.69 77.86 143.93 78.14 145.95 78.56C145.99 78.56 146 78.6 145.99 78.66C145.99 78.7 145.98 78.73 145.96 78.75C145.94 78.79 145.92 78.81 145.89 78.8C145.63 78.76 145.46 79.03 145.37 79.6C145.19 80.62 144.99 81.91 144.76 83.45C144.66 84.15 144.56 84.93 144.47 85.8L144.29 87.13C144.23 87.55 144.22 87.86 144.26 88.06C144.29 88.26 144.4 88.39 144.59 88.47C144.62 88.5 144.63 88.55 144.6 88.61C144.59 88.69 144.56 88.72 144.52 88.7C143.96 88.58 143.27 88.44 142.42 88.28C141.6 88.12 141.03 88.03 140.74 88C140.7 87.99 140.69 87.95 140.7 87.87C140.72 87.77 140.75 87.73 140.8 87.73C141.32 87.81 141.82 87.76 142.29 87.58C142.77 87.42 143.17 87.14 143.49 86.76C143.82 86.4 144.02 85.97 144.08 85.49L144.12 85.24C144.16 84.99 144.15 84.8 144.1 84.68C144.06 84.57 143.96 84.49 143.81 84.44C143.67 84.39 143.44 84.34 143.1 84.28L134.35 83.04C133.95 82.98 133.66 82.98 133.48 83.03C133.29 83.09 133.14 83.24 133.05 83.47C132.95 83.7 132.86 84.09 132.78 84.64C132.78 84.67 132.74 84.69 132.66 84.68C132.58 84.67 132.55 84.64 132.55 84.6C132.62 84.14 132.68 83.77 132.73 83.5L133 81.78L133.21 80.14C133.24 79.86 133.29 79.46 133.36 78.96Z"
        fill="#DCCA87" fill-opacity="1.000000" fill-rule="nonzero" />
    <path id="I"
        d="M120.01 111.47C120.02 111.45 120.06 111.47 120.12 111.52C120.17 111.57 120.2 111.6 120.18 111.62C119.92 111.92 119.76 112.16 119.7 112.32C119.63 112.5 119.64 112.67 119.74 112.84C119.83 113 120.03 113.22 120.32 113.48L127.03 119.3C127.31 119.55 127.54 119.7 127.73 119.76C127.92 119.83 128.09 119.83 128.26 119.73C128.43 119.65 128.64 119.46 128.88 119.18C128.9 119.16 128.94 119.17 129.01 119.22C129.07 119.27 129.08 119.31 129.06 119.33L128.42 120.05C128.03 120.46 127.72 120.79 127.5 121.05C127.25 121.34 126.94 121.72 126.57 122.18L125.97 122.91C125.95 122.93 125.92 122.91 125.86 122.86C125.8 122.81 125.78 122.77 125.8 122.75C126.05 122.46 126.2 122.23 126.26 122.04C126.32 121.85 126.3 121.68 126.21 121.51C126.11 121.36 125.91 121.14 125.62 120.87L118.94 115.07C118.65 114.82 118.42 114.66 118.24 114.59C118.06 114.53 117.88 114.55 117.7 114.63C117.54 114.73 117.33 114.91 117.09 115.19C117.07 115.21 117.04 115.2 116.98 115.15C116.92 115.1 116.9 115.06 116.92 115.04C117.18 114.74 117.39 114.51 117.56 114.33L118.49 113.28L119.37 112.24C119.52 112.05 119.73 111.79 120.01 111.47Z"
        fill="#DCCA87" fill-opacity="1.000000" fill-rule="nonzero" />
    <path id="N"
        d="M106.3 138.16C106.26 138.18 106.23 138.16 106.19 138.1C106.15 138.03 106.14 137.99 106.17 137.97C106.61 137.68 106.88 137.3 106.96 136.82C107.04 136.34 106.92 135.85 106.59 135.32L101.26 126.97C101.23 126.95 101.24 126.9 101.29 126.84C101.33 126.77 101.38 126.71 101.45 126.67C101.56 126.6 101.65 126.58 101.73 126.63L113.93 130.78L109.79 124.29C109.47 123.76 109.08 123.44 108.62 123.31C108.16 123.18 107.7 123.26 107.25 123.55C107.21 123.58 107.16 123.56 107.12 123.49C107.08 123.43 107.08 123.38 107.12 123.36C107.43 123.16 107.66 123.02 107.83 122.93L108.85 122.29L109.81 121.65C109.99 121.52 110.24 121.35 110.58 121.13C110.62 121.11 110.66 121.12 110.7 121.19C110.74 121.25 110.74 121.3 110.7 121.33C110.25 121.62 109.99 122 109.93 122.47C109.85 122.94 109.97 123.44 110.29 123.96L114.83 131.07C115.36 131.21 115.8 131.28 116.13 131.26C116.46 131.24 116.75 131.15 117.01 130.99C117.03 130.97 117.06 131 117.1 131.06C117.14 131.13 117.15 131.17 117.13 131.18L116.25 131.73C116.07 131.83 115.84 131.97 115.55 132.16C115.26 132.34 115.02 132.5 114.83 132.64C114.64 132.78 114.5 132.88 114.44 132.92C114.35 132.97 114.28 132.99 114.21 132.98C114.12 132.97 114.01 132.92 113.87 132.85C113.62 132.74 113.38 132.64 113.14 132.56L103.46 129.3L107.08 135.01C107.4 135.53 107.79 135.86 108.25 135.99C108.7 136.12 109.16 136.04 109.62 135.75C109.67 135.72 109.71 135.74 109.75 135.8C109.79 135.87 109.79 135.91 109.75 135.94L109.11 136.33C108.66 136.58 108.3 136.8 108.01 136.99C107.78 137.14 107.47 137.35 107.08 137.64L106.3 138.16Z"
        fill="#DCCA87" fill-opacity="1.000000" fill-rule="nonzero" />
    <path id="E"
        d="M68.23 137.04C68.2 137.07 68.17 137.08 68.13 137.08C68.1 137.08 68.06 137.07 68.02 137.04C67.98 137.03 67.97 137.02 67.98 137C68.11 136.17 68.17 135.26 68.17 134.28C68.17 134.17 68.19 134.1 68.23 134.05C68.27 134.01 68.34 133.99 68.46 133.99L77.2 133.99C77.25 133.99 77.28 134.03 77.28 134.1C77.28 134.18 77.26 134.22 77.22 134.22C76.84 134.22 76.56 134.25 76.39 134.32C76.22 134.38 76.1 134.5 76.05 134.68C75.99 134.86 75.95 135.15 75.95 135.54L75.95 144.44C75.95 144.82 75.99 145.11 76.05 145.28C76.11 145.46 76.24 145.59 76.41 145.65C76.59 145.73 76.86 145.77 77.22 145.77C77.26 145.77 77.28 145.8 77.3 145.88C77.3 145.96 77.28 146 77.26 146L69 146C68.89 146 68.84 145.94 68.84 145.82L68.8 143.29C68.8 143.25 68.84 143.23 68.92 143.23C68.98 143.23 69.02 143.24 69.03 143.27C69.25 143.98 69.65 144.55 70.22 144.96C70.79 145.38 71.46 145.59 72.24 145.59L72.6 145.59C73 145.59 73.28 145.56 73.46 145.5C73.63 145.44 73.74 145.34 73.79 145.19C73.84 145.03 73.87 144.78 73.88 144.42L73.88 140.5L71.49 140.5C70.84 140.5 70.36 140.62 70.05 140.85C69.74 141.08 69.59 141.45 69.59 141.96C69.59 142.01 69.55 142.04 69.46 142.04C69.37 142.04 69.32 142.01 69.32 141.94L69.34 140.89C69.35 140.73 69.36 140.51 69.36 140.23C69.36 139.82 69.35 139.52 69.34 139.31L69.32 138.27C69.32 138.21 69.36 138.18 69.44 138.18C69.48 138.18 69.51 138.18 69.55 138.2C69.58 138.22 69.59 138.25 69.59 138.27C69.59 138.82 69.76 139.24 70.11 139.52C70.44 139.82 70.91 139.96 71.53 139.96L73.88 139.96L73.88 135.62C73.88 135.11 73.81 134.78 73.65 134.62C73.49 134.47 73.15 134.39 72.64 134.39L72.1 134.39C71.27 134.39 70.51 134.63 69.82 135.1C69.13 135.59 68.6 136.24 68.23 137.04Z"
        fill="#DCCA87" fill-opacity="1.000000" fill-rule="nonzero" />
    <path id="V"
        d="M45.74 141.13C45.68 141.11 45.66 141.06 45.69 140.99C45.71 140.92 45.75 140.89 45.81 140.91C46.26 141.04 46.7 141.03 47.12 140.87C47.52 140.71 47.99 140.27 48.52 139.56L54.74 131.28C54.8 131.23 54.9 131.23 55.04 131.27C55.11 131.29 55.16 131.32 55.22 131.36C55.28 131.39 55.31 131.42 55.31 131.45L56.97 142.77C57.05 143.33 57.16 143.73 57.32 143.97C57.47 144.23 57.71 144.41 58.06 144.51C58.09 144.52 58.1 144.56 58.08 144.64C58.06 144.71 58.04 144.75 58.01 144.74L57.04 144.43C56.61 144.28 56.29 144.17 56.08 144.11C55.61 143.97 55.08 143.83 54.49 143.68L53.58 143.43C53.52 143.42 53.5 143.37 53.52 143.3C53.54 143.22 53.58 143.19 53.64 143.21C54.33 143.41 54.73 143.33 54.84 142.94C54.88 142.81 54.89 142.61 54.86 142.35L53.63 133.72L49.15 139.81C48.97 140.05 48.85 140.27 48.8 140.46C48.68 140.85 48.74 141.18 48.96 141.47C49.18 141.78 49.52 142 49.98 142.14C50.03 142.15 50.05 142.19 50.03 142.27C50 142.34 49.97 142.37 49.92 142.36L48.99 142.06C48.45 141.88 47.97 141.72 47.53 141.59C47.28 141.52 46.97 141.44 46.6 141.36L45.74 141.13Z"
        fill="#DCCA87" fill-opacity="1.000000" fill-rule="nonzero" />
    <path id="E"
        d="M34.41 124.43C34.38 124.44 34.34 124.43 34.31 124.41C34.28 124.39 34.25 124.36 34.23 124.31C34.21 124.28 34.21 124.27 34.22 124.26C34.78 123.63 35.32 122.9 35.86 122.07C35.91 121.98 35.97 121.93 36.03 121.91C36.08 121.9 36.16 121.92 36.25 121.98L43.61 126.72C43.65 126.75 43.65 126.79 43.61 126.86C43.57 126.92 43.53 126.95 43.5 126.92C43.18 126.72 42.93 126.59 42.75 126.56C42.57 126.52 42.41 126.56 42.27 126.68C42.12 126.79 41.93 127.02 41.72 127.35L36.92 134.84C36.71 135.16 36.59 135.41 36.55 135.6C36.5 135.78 36.54 135.95 36.65 136.1C36.76 136.27 36.97 136.44 37.27 136.64C37.3 136.66 37.3 136.7 37.27 136.78C37.23 136.84 37.2 136.87 37.18 136.85L30.23 132.38C30.14 132.32 30.13 132.24 30.19 132.15L31.53 129.99C31.55 129.96 31.59 129.97 31.66 130.01C31.71 130.04 31.74 130.07 31.73 130.1C31.53 130.82 31.56 131.51 31.82 132.17C32.06 132.83 32.52 133.37 33.17 133.79L33.48 133.99C33.81 134.2 34.07 134.33 34.25 134.38C34.42 134.42 34.57 134.39 34.69 134.29C34.82 134.19 34.99 133.99 35.19 133.7L37.3 130.4L35.29 129.1C34.74 128.75 34.27 128.59 33.89 128.62C33.51 128.64 33.18 128.87 32.9 129.3C32.88 129.35 32.83 129.34 32.75 129.3C32.67 129.25 32.65 129.2 32.69 129.14L33.27 128.26C33.37 128.14 33.49 127.96 33.64 127.72C33.86 127.38 34.02 127.12 34.12 126.94L34.67 126.06C34.7 126 34.75 126 34.82 126.04C34.85 126.06 34.88 126.08 34.9 126.12C34.91 126.15 34.91 126.18 34.89 126.2C34.6 126.66 34.52 127.11 34.66 127.53C34.78 127.96 35.09 128.34 35.61 128.67L37.59 129.95L39.94 126.3C40.21 125.87 40.33 125.54 40.28 125.33C40.22 125.11 39.98 124.86 39.55 124.59L39.1 124.3C38.4 123.85 37.63 123.63 36.8 123.66C35.95 123.69 35.16 123.95 34.41 124.43Z"
        fill="#DCCA87" fill-opacity="1.000000" fill-rule="nonzero" />
    <path id="R"
        d="M22.11 107.9C22.08 107.87 22.1 107.83 22.16 107.78C22.21 107.72 22.25 107.71 22.28 107.75L24.34 110.13C24.54 110.36 24.51 111.11 24.24 112.36C23.95 113.61 23.37 115.32 22.51 117.49C22.81 117.7 23.11 117.97 23.39 118.3C23.43 118.35 23.48 118.42 23.53 118.52L26.96 115.54C27.25 115.3 27.44 115.1 27.55 114.92C27.63 114.75 27.64 114.57 27.59 114.38C27.51 114.19 27.34 113.96 27.09 113.66C27.06 113.63 27.07 113.58 27.13 113.53C27.18 113.47 27.22 113.46 27.25 113.5C27.54 113.83 27.75 114.08 27.89 114.27L28.81 115.35L29.76 116.43C29.94 116.62 30.17 116.87 30.46 117.2C30.49 117.24 30.48 117.29 30.43 117.35C30.37 117.4 30.33 117.41 30.29 117.37C30.02 117.05 29.79 116.83 29.61 116.72C29.41 116.61 29.23 116.6 29.05 116.67C28.86 116.73 28.62 116.88 28.33 117.12L21.62 122.94C21.33 123.19 21.14 123.41 21.06 123.58C20.97 123.75 20.96 123.93 21.03 124.11C21.1 124.31 21.27 124.56 21.53 124.86C21.56 124.89 21.55 124.94 21.49 124.99C21.43 125.04 21.38 125.05 21.35 125.01L20.7 124.22C20.35 123.78 20.06 123.43 19.83 123.15C19.54 122.83 19.21 122.48 18.84 122.13C18.55 121.84 18.37 121.64 18.28 121.55C17.44 120.57 16.97 119.7 16.87 118.94C16.76 118.17 16.99 117.54 17.56 117.04C17.97 116.68 18.5 116.47 19.12 116.42C19.75 116.35 20.38 116.43 21.04 116.66C21.63 114.83 22.06 113.34 22.32 112.19C22.56 111.05 22.68 110.14 22.65 109.47C22.61 108.79 22.43 108.27 22.11 107.9ZM23.12 118.87C23.05 118.73 22.94 118.57 22.8 118.41C22.25 117.77 21.72 117.44 21.21 117.42C20.7 117.4 20.11 117.67 19.46 118.24C18.77 118.83 18.39 119.41 18.3 119.95C18.2 120.5 18.32 120.97 18.65 121.35C18.88 121.62 19.05 121.78 19.17 121.84C19.28 121.91 19.42 121.91 19.58 121.84C19.72 121.77 19.95 121.6 20.28 121.33L23.12 118.87Z"
        fill="#DCCA87" fill-opacity="1.000000" fill-rule="nonzero" />
    <path id="Y"
        d="M4.22 98.27C4.19 98.22 4.21 98.17 4.28 98.14C4.35 98.11 4.4 98.12 4.43 98.18C4.61 98.59 4.95 98.9 5.43 99.13C5.9 99.36 6.54 99.5 7.35 99.56L11.46 99.79L15.52 97.93C15.88 97.77 16.13 97.62 16.27 97.49C16.4 97.34 16.45 97.16 16.43 96.95C16.4 96.74 16.29 96.42 16.1 96C16.08 95.96 16.1 95.92 16.17 95.89C16.24 95.85 16.29 95.86 16.31 95.91C16.49 96.31 16.63 96.63 16.72 96.86L17.33 98.25L18.01 99.69C18.13 99.92 18.28 100.23 18.46 100.63C18.48 100.67 18.45 100.71 18.38 100.74C18.31 100.78 18.27 100.77 18.25 100.72C18.06 100.3 17.89 100.01 17.74 99.83C17.58 99.67 17.4 99.59 17.21 99.59C17.01 99.59 16.74 99.67 16.39 99.84L12.58 101.6L9.63 106.31C9.33 106.79 9.13 107.2 9.05 107.55C8.97 107.88 8.98 108.18 9.1 108.44C9.12 108.48 9.1 108.52 9.03 108.55C8.96 108.6 8.92 108.6 8.91 108.57L8.51 107.65C8.33 107.2 8.19 106.87 8.1 106.66C7.97 106.36 7.75 105.93 7.47 105.36L7.04 104.48C7.03 104.44 7.04 104.41 7.09 104.39C7.12 104.38 7.16 104.37 7.21 104.38C7.24 104.38 7.26 104.39 7.27 104.42C7.41 104.72 7.53 104.93 7.64 105.05C7.75 105.16 7.85 105.19 7.95 105.14C8.06 105.09 8.17 104.97 8.28 104.78L11.09 100.32L7.15 100.14C6.87 100.14 6.64 100.18 6.45 100.27C6.19 100.39 6.01 100.58 5.94 100.85C5.85 101.09 5.89 101.39 6.04 101.73C6.06 101.77 6.04 101.81 5.97 101.84C5.9 101.88 5.86 101.87 5.84 101.84L5.43 100.89C5.19 100.29 4.99 99.84 4.85 99.53C4.76 99.33 4.64 99.11 4.5 98.86L4.22 98.27Z"
        fill="#DCCA87" fill-opacity="1.000000" fill-rule="nonzero" />
    <path id="B"
        d="M6.08 62.1C6.36 61.04 6.84 60.23 7.51 59.67C8.18 59.1 8.94 58.88 9.8 59.01C10.45 59.1 11.02 59.38 11.5 59.85C11.97 60.32 12.32 60.92 12.53 61.65C12.74 62.38 12.78 63.17 12.66 64.02C12.61 64.37 12.53 64.78 12.43 65.23C12.39 65.4 12.35 65.62 12.3 65.89C12.25 66.14 12.2 66.42 12.15 66.74L11.98 68.11C11.95 68.36 11.91 68.69 11.85 69.12C11.85 69.15 11.81 69.16 11.73 69.15C11.66 69.13 11.62 69.12 11.62 69.09C11.68 68.72 11.68 68.45 11.65 68.26C11.6 68.06 11.49 67.91 11.32 67.81C11.16 67.7 10.88 67.63 10.5 67.57L1.72 66.31C1.35 66.25 1.08 66.25 0.89 66.3C0.69 66.34 0.54 66.45 0.45 66.63C0.35 66.79 0.28 67.06 0.22 67.43C0.22 67.45 0.18 67.46 0.1 67.45C0.03 67.44 -0.01 67.42 0 67.4L0.16 66.39C0.26 65.84 0.34 65.39 0.39 65.05C0.44 64.69 0.47 64.32 0.49 63.93C0.5 63.81 0.51 63.61 0.54 63.36C0.56 63.1 0.58 62.88 0.61 62.69C0.78 61.5 1.12 60.61 1.63 60.02C2.15 59.42 2.8 59.18 3.6 59.3C4.2 59.39 4.73 59.67 5.16 60.14C5.6 60.62 5.9 61.27 6.08 62.1ZM0.95 63.03C0.9 63.4 0.95 63.66 1.11 63.83C1.26 63.99 1.58 64.11 2.06 64.18L5.67 64.7L5.8 63.92C5.9 63.24 5.73 62.68 5.29 62.24C4.83 61.79 4.23 61.5 3.47 61.39C2.75 61.29 2.17 61.38 1.75 61.67C1.31 61.94 1.04 62.4 0.95 63.03ZM12.2 64.28C12.33 63.38 12.2 62.69 11.82 62.21C11.43 61.73 10.81 61.42 9.93 61.3C8.96 61.16 8.15 61.29 7.51 61.69C6.88 62.09 6.49 62.79 6.34 63.79C6.29 64.16 6.25 64.49 6.24 64.78L10.81 65.44C11.25 65.51 11.57 65.47 11.78 65.33C11.98 65.19 12.12 64.84 12.2 64.28Z"
        fill="#DCCA87" fill-opacity="1.000000" fill-rule="nonzero" />
    <path id="I"
        d="M16.61 49.46C16.6 49.48 16.56 49.48 16.49 49.44C16.42 49.41 16.39 49.39 16.4 49.36C16.56 49 16.65 48.73 16.66 48.55C16.68 48.36 16.62 48.2 16.48 48.07C16.34 47.94 16.1 47.79 15.74 47.62L7.66 43.93C7.33 43.77 7.06 43.69 6.87 43.69C6.66 43.67 6.5 43.73 6.37 43.86C6.22 43.99 6.07 44.23 5.92 44.57C5.91 44.59 5.87 44.59 5.79 44.57C5.72 44.54 5.69 44.5 5.71 44.47L6.12 43.6C6.38 43.1 6.58 42.69 6.73 42.38C6.88 42.03 7.07 41.58 7.3 41.04L7.67 40.17C7.68 40.15 7.72 40.15 7.79 40.18C7.86 40.22 7.89 40.24 7.88 40.27C7.72 40.62 7.64 40.89 7.63 41.08C7.63 41.28 7.69 41.44 7.83 41.58C7.97 41.7 8.22 41.85 8.57 42.02L16.61 45.7C16.96 45.86 17.23 45.95 17.42 45.96C17.61 45.97 17.78 45.91 17.93 45.77C18.06 45.64 18.2 45.4 18.36 45.06C18.37 45.04 18.41 45.04 18.48 45.08C18.55 45.11 18.58 45.14 18.57 45.16C18.4 45.52 18.26 45.81 18.15 46.02L17.55 47.29L17 48.54C16.91 48.77 16.78 49.07 16.61 49.46Z"
        fill="#DCCA87" fill-opacity="1.000000" fill-rule="nonzero" />
    <path id="T"
        d="M24.97 35.17C24.94 35.2 24.9 35.19 24.84 35.14C24.79 35.09 24.77 35.06 24.78 35.04C25.13 34.63 25.37 34.31 25.48 34.09C25.6 33.85 25.62 33.64 25.54 33.46C25.45 33.26 25.27 33.04 24.98 32.79L18.27 26.96C17.94 26.66 17.68 26.51 17.49 26.52C17.29 26.51 17.07 26.65 16.84 26.92L16.68 27.11C16.39 27.44 16.22 27.85 16.15 28.36C16.08 28.85 16.12 29.36 16.28 29.89C16.42 30.4 16.68 30.86 17.04 31.26C17.06 31.28 17.05 31.31 17.01 31.36C16.98 31.39 16.95 31.41 16.92 31.43C16.88 31.44 16.86 31.43 16.86 31.41C16.54 31.04 15.64 30.14 14.17 28.69C14.14 28.66 14.14 28.63 14.19 28.58C14.21 28.55 14.24 28.53 14.26 28.52C14.3 28.5 14.32 28.5 14.34 28.51C14.55 28.69 14.84 28.56 15.21 28.12C15.92 27.36 16.78 26.39 17.8 25.21C18.26 24.68 18.77 24.08 19.32 23.4L20.18 22.37C20.46 22.05 20.64 21.8 20.71 21.61C20.79 21.43 20.77 21.25 20.66 21.09C20.65 21.04 20.67 21 20.72 20.96C20.77 20.9 20.81 20.89 20.84 20.94C21.24 21.34 21.75 21.83 22.37 22.42C22.99 23 23.41 23.39 23.64 23.57C23.67 23.6 23.66 23.64 23.61 23.69C23.54 23.77 23.49 23.79 23.45 23.76C23.05 23.42 22.61 23.19 22.11 23.08C21.62 22.96 21.14 22.97 20.66 23.12C20.19 23.25 19.79 23.5 19.47 23.87L19.31 24.06C19.14 24.25 19.05 24.41 19.02 24.54C19 24.66 19.04 24.78 19.14 24.9C19.23 25.01 19.4 25.19 19.65 25.42L26.34 31.21C26.64 31.47 26.89 31.63 27.07 31.69C27.27 31.74 27.47 31.69 27.67 31.55C27.88 31.41 28.16 31.13 28.52 30.71C28.55 30.68 28.59 30.69 28.65 30.74C28.71 30.79 28.72 30.83 28.7 30.86C28.39 31.22 28.14 31.5 27.96 31.69L26.8 33L25.73 34.26C25.56 34.48 25.3 34.79 24.97 35.17Z"
        fill="#DCCA87" fill-opacity="1.000000" fill-rule="nonzero" />
    <path id="E"
        d="M42.02 16.7C42.03 16.66 42.05 16.64 42.08 16.62C42.11 16.6 42.15 16.59 42.2 16.59C42.24 16.58 42.25 16.58 42.25 16.6C42.59 17.37 43.03 18.17 43.56 19C43.61 19.08 43.64 19.16 43.64 19.22C43.62 19.27 43.57 19.33 43.47 19.39L36.12 24.13C36.08 24.16 36.03 24.14 35.99 24.08C35.95 24.01 35.95 23.97 35.98 23.95C36.3 23.74 36.52 23.56 36.62 23.42C36.74 23.27 36.77 23.1 36.71 22.93C36.67 22.74 36.54 22.48 36.33 22.15L31.53 14.66C31.32 14.34 31.14 14.12 30.99 14C30.84 13.89 30.68 13.85 30.49 13.9C30.3 13.93 30.05 14.04 29.75 14.23C29.72 14.26 29.68 14.24 29.62 14.18C29.58 14.11 29.57 14.08 29.59 14.06L36.54 9.58C36.63 9.53 36.7 9.55 36.77 9.65L38.17 11.76C38.19 11.79 38.17 11.83 38.1 11.87C38.05 11.91 38.01 11.91 37.98 11.9C37.41 11.41 36.78 11.16 36.07 11.12C35.37 11.07 34.69 11.26 34.04 11.68L33.73 11.88C33.4 12.09 33.17 12.27 33.06 12.43C32.95 12.56 32.91 12.7 32.95 12.86C32.99 13.02 33.1 13.25 33.28 13.56L35.4 16.86L37.41 15.56C37.96 15.2 38.3 14.85 38.43 14.49C38.57 14.13 38.5 13.73 38.22 13.3C38.19 13.26 38.22 13.21 38.29 13.16C38.37 13.11 38.42 13.12 38.46 13.17L39.01 14.07C39.08 14.21 39.2 14.39 39.35 14.63C39.57 14.98 39.74 15.23 39.86 15.4L40.44 16.26C40.47 16.31 40.46 16.36 40.39 16.4C40.36 16.42 40.32 16.44 40.28 16.45C40.25 16.44 40.22 16.43 40.21 16.4C39.91 15.94 39.54 15.68 39.1 15.63C38.66 15.57 38.19 15.7 37.67 16.03L35.69 17.31L38.03 20.96C38.31 21.39 38.55 21.63 38.76 21.68C38.98 21.72 39.31 21.6 39.74 21.32L40.19 21.03C40.89 20.58 41.4 19.97 41.73 19.19C42.05 18.41 42.14 17.58 42.02 16.7Z"
        fill="#DCCA87" fill-opacity="1.000000" fill-rule="nonzero" />
</svg>