<svg width="40.000000" height="9.000000" viewBox="0 0 40 9" fill="none" xmlns="http://www.w3.org/2000/svg" xmlns:xlink="http://www.w3.org/1999/xlink">
	<desc>
			Created with Pixso.
	</desc>
	<defs>
		<clipPath id="clip513_641">
			<rect id="spoon" rx="-0.500000" width="39.000000" height="8.000000" transform="translate(0.500000 0.500000)" fill="white" fill-opacity="0"/>
		</clipPath>
	</defs>
	<g clip-path="url(#clip513_641)">
		<path id="Vector" d="M33.5 9C37.08 9 40 6.98 40 4.5C40 2.01 37.08 0 33.5 0C30.11 0 27.32 1.8 27.03 4.1L22.35 4.1L22.35 3.15L0 3.15L0 5.84L22.35 5.84L22.35 4.89L27.03 4.89C27.32 7.19 30.11 9 33.5 9ZM21.48 5.04L0.86 5.04L0.86 3.95L21.48 3.95L21.48 5.04ZM27.86 4.5C27.86 2.45 30.39 0.79 33.5 0.79C36.6 0.79 39.13 2.45 39.13 4.5C39.13 6.54 36.6 8.2 33.5 8.2C30.39 8.2 27.86 6.54 27.86 4.5Z" fill="#DCCA87" fill-opacity="1.000000" fill-rule="nonzero"/>
	</g>
</svg>
